<svg width="77" height="77" viewBox="0 0 77 77" fill="none" xmlns="http://www.w3.org/2000/svg">
<g filter="url(#filter0_d_2003_306)">
<circle cx="39.5" cy="36.5" r="32.5" fill="#4B77B3"/>
</g>
<path d="M51.6391 30.5981L46.402 25.3621C46.2278 25.188 46.0211 25.0498 45.7936 24.9556C45.5661 24.8613 45.3223 24.8128 45.076 24.8128C44.8297 24.8128 44.5859 24.8613 44.3584 24.9556C44.1308 25.0498 43.9241 25.188 43.75 25.3621L29.2996 39.8125C29.1248 39.986 28.9861 40.1925 28.8918 40.42C28.7974 40.6476 28.7492 40.8916 28.75 41.1379V46.375C28.75 46.8723 28.9476 47.3492 29.2992 47.7008C29.6508 48.0525 30.1277 48.25 30.625 48.25H35.8621C36.1084 48.2508 36.3525 48.2026 36.58 48.1083C36.8075 48.0139 37.014 47.8753 37.1875 47.7004L46.9926 37.8965L47.4004 39.5254L43.0879 43.8367C42.912 44.0125 42.8131 44.2509 42.813 44.4996C42.8129 44.7483 42.9116 44.9868 43.0873 45.1627C43.2631 45.3386 43.5015 45.4375 43.7502 45.4376C43.9988 45.4377 44.2374 45.3391 44.4133 45.1633L49.1008 40.4758C49.2154 40.3614 49.2985 40.2192 49.3418 40.0631C49.3851 39.907 49.3873 39.7423 49.3481 39.5852L48.5395 36.3496L51.6391 33.25C51.8132 33.0759 51.9514 32.8692 52.0456 32.6417C52.1399 32.4142 52.1884 32.1703 52.1884 31.924C52.1884 31.6778 52.1399 31.4339 52.0456 31.2064C51.9514 30.9789 51.8132 30.7722 51.6391 30.5981ZM30.625 43.0129L33.9871 46.375H30.625V43.0129ZM36.25 45.9871L31.0129 40.75L40.9375 30.8254L46.1746 36.0625L36.25 45.9871ZM47.5 34.7371L42.2641 29.5L45.0766 26.6875L50.3125 31.9246L47.5 34.7371Z" fill="white"/>
<defs>
<filter id="filter0_d_2003_306" x="0" y="0" width="77" height="77" filterUnits="userSpaceOnUse" color-interpolation-filters="sRGB">
<feFlood flood-opacity="0" result="BackgroundImageFix"/>
<feColorMatrix in="SourceAlpha" type="matrix" values="0 0 0 0 0 0 0 0 0 0 0 0 0 0 0 0 0 0 127 0" result="hardAlpha"/>
<feOffset dx="-1" dy="2"/>
<feGaussianBlur stdDeviation="3"/>
<feComposite in2="hardAlpha" operator="out"/>
<feColorMatrix type="matrix" values="0 0 0 0 0.438676 0 0 0 0 0.492828 0 0 0 0 0.568641 0 0 0 1 0"/>
<feBlend mode="normal" in2="BackgroundImageFix" result="effect1_dropShadow_2003_306"/>
<feBlend mode="normal" in="SourceGraphic" in2="effect1_dropShadow_2003_306" result="shape"/>
</filter>
</defs>
</svg>
