<svg width="27" height="27" viewBox="0 0 27 27" fill="none" xmlns="http://www.w3.org/2000/svg">
<path d="M13.5 6.75C12.6656 6.75 11.85 6.99743 11.1562 7.46099C10.4624 7.92455 9.92169 8.58343 9.60238 9.3543C9.28308 10.1252 9.19953 10.9734 9.36231 11.7918C9.52509 12.6101 9.92689 13.3619 10.5169 13.9519C11.1069 14.5419 11.8586 14.9437 12.677 15.1064C13.4953 15.2692 14.3436 15.1857 15.1144 14.8664C15.8853 14.5471 16.5442 14.0063 17.0078 13.3126C17.4713 12.6188 17.7187 11.8031 17.7188 10.9688C17.7188 9.84987 17.2743 8.77681 16.4831 7.98564C15.6919 7.19447 14.6189 6.75 13.5 6.75ZM13.5 13.5C12.9994 13.5 12.51 13.3515 12.0937 13.0734C11.6775 12.7953 11.353 12.3999 11.1614 11.9374C10.9698 11.4749 10.9197 10.9659 11.0174 10.4749C11.1151 9.98391 11.3561 9.53289 11.7101 9.17889C12.0641 8.82488 12.5152 8.58381 13.0062 8.48614C13.4972 8.38847 14.0061 8.4386 14.4687 8.63018C14.9312 8.82176 15.3265 9.1462 15.6047 9.56246C15.8828 9.97872 16.0312 10.4681 16.0312 10.9688C16.0312 11.6401 15.7646 12.2839 15.2899 12.7586C14.8152 13.2333 14.1713 13.5 13.5 13.5ZM13.5 1.6875C11.0393 1.69029 8.68022 2.66903 6.94025 4.409C5.20028 6.14897 4.22154 8.50807 4.21875 10.9688C4.21875 14.2805 5.7491 17.7905 8.64844 21.1201C9.95121 22.6247 11.4175 23.9795 13.0201 25.1596C13.162 25.259 13.331 25.3123 13.5042 25.3123C13.6774 25.3123 13.8465 25.259 13.9883 25.1596C15.588 23.979 17.0514 22.6242 18.3516 21.1201C21.2467 17.7905 22.7812 14.2805 22.7812 10.9688C22.7785 8.50807 21.7997 6.14897 20.0598 4.409C18.3198 2.66903 15.9607 1.69029 13.5 1.6875ZM13.5 23.4141C11.7566 22.043 5.90625 17.0068 5.90625 10.9688C5.90625 8.95476 6.7063 7.02326 8.13041 5.59916C9.55451 4.17505 11.486 3.375 13.5 3.375C15.514 3.375 17.4455 4.17505 18.8696 5.59916C20.2937 7.02326 21.0938 8.95476 21.0938 10.9688C21.0938 17.0047 15.2434 22.043 13.5 23.4141Z" fill="#4B77B3"/>
</svg>
