<svg width="27" height="27" viewBox="0 0 27 27" fill="none" xmlns="http://www.w3.org/2000/svg">
<path d="M24.3548 22.3594C22.7486 19.5824 20.2732 17.5911 17.3844 16.6472C18.8133 15.7965 19.9235 14.5003 20.5445 12.9577C21.1654 11.415 21.2628 9.71114 20.8217 8.10776C20.3806 6.50438 19.4253 5.09013 18.1026 4.08219C16.7799 3.07426 15.163 2.52838 13.5 2.52838C11.837 2.52838 10.2201 3.07426 8.89737 4.08219C7.57468 5.09013 6.61942 6.50438 6.17829 8.10776C5.73716 9.71114 5.83456 11.415 6.45551 12.9577C7.07647 14.5003 8.18666 15.7965 9.61558 16.6472C6.72679 17.5901 4.25144 19.5813 2.64515 22.3594C2.58625 22.4554 2.54717 22.5623 2.53024 22.6737C2.51331 22.7851 2.51886 22.8987 2.54656 23.008C2.57427 23.1172 2.62357 23.2197 2.69155 23.3096C2.75953 23.3994 2.84482 23.4748 2.94239 23.5311C3.03996 23.5875 3.14782 23.6237 3.25962 23.6377C3.37142 23.6517 3.48489 23.6432 3.59334 23.6126C3.70178 23.582 3.80301 23.53 3.89104 23.4597C3.97907 23.3894 4.05213 23.3021 4.10589 23.2031C6.09293 19.7691 9.60504 17.7188 13.5 17.7188C17.395 17.7188 20.9071 19.7691 22.8941 23.2031C22.9479 23.3021 23.0209 23.3894 23.109 23.4597C23.197 23.53 23.2982 23.582 23.4067 23.6126C23.5151 23.6432 23.6286 23.6517 23.7404 23.6377C23.8522 23.6237 23.96 23.5875 24.0576 23.5311C24.1552 23.4748 24.2405 23.3994 24.3084 23.3096C24.3764 23.2197 24.4257 23.1172 24.4534 23.008C24.4811 22.8987 24.4867 22.7851 24.4697 22.6737C24.4528 22.5623 24.4137 22.4554 24.3548 22.3594ZM7.59375 10.125C7.59375 8.95685 7.94014 7.81494 8.58913 6.84366C9.23812 5.87239 10.1605 5.11537 11.2398 4.66834C12.319 4.22131 13.5065 4.10434 14.6522 4.33224C15.7979 4.56013 16.8503 5.12265 17.6763 5.94865C18.5023 6.77465 19.0649 7.82705 19.2928 8.97275C19.5207 10.1184 19.4037 11.306 18.9567 12.3852C18.5096 13.4645 17.7526 14.3869 16.7813 15.0359C15.8101 15.6849 14.6681 16.0312 13.5 16.0312C11.9341 16.0296 10.4328 15.4068 9.3255 14.2995C8.21822 13.1922 7.59542 11.6909 7.59375 10.125Z" fill="#707E91"/>
</svg>
