<svg width="27" height="27" viewBox="0 0 27 27" fill="none" xmlns="http://www.w3.org/2000/svg">
<path d="M23.1304 11.4624L14.6929 3.02487C14.3764 2.70864 13.9474 2.53101 13.5 2.53101C13.0526 2.53101 12.6236 2.70864 12.3071 3.02487L3.86965 11.4624C3.71219 11.6187 3.58737 11.8047 3.50245 12.0097C3.41753 12.2146 3.37421 12.4344 3.375 12.6563V22.7813C3.375 23.0051 3.46389 23.2197 3.62213 23.3779C3.78036 23.5361 3.99497 23.625 4.21875 23.625H10.9687C11.1925 23.625 11.4071 23.5361 11.5654 23.3779C11.7236 23.2197 11.8125 23.0051 11.8125 22.7813V16.875H15.1875V22.7813C15.1875 23.0051 15.2764 23.2197 15.4346 23.3779C15.5929 23.5361 15.8075 23.625 16.0312 23.625H22.7812C23.005 23.625 23.2196 23.5361 23.3779 23.3779C23.5361 23.2197 23.625 23.0051 23.625 22.7813V12.6563C23.6258 12.4344 23.5825 12.2146 23.4975 12.0097C23.4126 11.8047 23.2878 11.6187 23.1304 11.4624ZM21.9375 21.9375H16.875V16.0313C16.875 15.8075 16.7861 15.5929 16.6279 15.4347C16.4696 15.2764 16.255 15.1875 16.0312 15.1875H10.9687C10.745 15.1875 10.5304 15.2764 10.3721 15.4347C10.2139 15.5929 10.125 15.8075 10.125 16.0313V21.9375H5.0625V12.6563L13.5 4.21878L21.9375 12.6563V21.9375Z" fill="#4B77B3"/>
</svg>
