<svg width="27" height="27" viewBox="0 0 27 27" fill="none" xmlns="http://www.w3.org/2000/svg">
<path d="M21.9375 2.53125H7.59375C6.69864 2.53125 5.8402 2.88683 5.20726 3.51976C4.57433 4.1527 4.21875 5.01114 4.21875 5.90625V23.625C4.21875 23.8488 4.30764 24.0634 4.46588 24.2216C4.62411 24.3799 4.83872 24.4688 5.0625 24.4688H20.25C20.4738 24.4688 20.6884 24.3799 20.8466 24.2216C21.0049 24.0634 21.0938 23.8488 21.0938 23.625C21.0938 23.4012 21.0049 23.1866 20.8466 23.0284C20.6884 22.8701 20.4738 22.7812 20.25 22.7812H5.90625C5.90625 22.3337 6.08404 21.9045 6.40051 21.588C6.71697 21.2715 7.1462 21.0938 7.59375 21.0938H21.9375C22.1613 21.0938 22.3759 21.0049 22.5341 20.8466C22.6924 20.6884 22.7812 20.4738 22.7812 20.25V3.375C22.7812 3.15122 22.6924 2.93661 22.5341 2.77838C22.3759 2.62014 22.1613 2.53125 21.9375 2.53125ZM12.6562 4.21875H17.7188V11.8125L15.6927 10.2937C15.5466 10.1842 15.369 10.125 15.1864 10.125C15.0039 10.125 14.8262 10.1842 14.6802 10.2937L12.6562 11.8125V4.21875ZM21.0938 19.4062H7.59375C7.00117 19.4054 6.41894 19.5616 5.90625 19.8587V5.90625C5.90625 5.4587 6.08404 5.02947 6.40051 4.71301C6.71697 4.39654 7.1462 4.21875 7.59375 4.21875H10.9688V13.5C10.9688 13.6567 11.0124 13.8103 11.0948 13.9436C11.1771 14.0769 11.295 14.1846 11.4352 14.2547C11.5753 14.3247 11.7322 14.3544 11.8883 14.3403C12.0443 14.3263 12.1934 14.269 12.3188 14.175L15.1875 12.0234L18.0573 14.175C18.2031 14.2843 18.3803 14.3435 18.5625 14.3438C18.7863 14.3438 19.0009 14.2549 19.1591 14.0966C19.3174 13.9384 19.4062 13.7238 19.4062 13.5V4.21875H21.0938V19.4062Z" fill="#4B77B3"/>
</svg>
