<svg width="27" height="27" viewBox="0 0 27 27" fill="none" xmlns="http://www.w3.org/2000/svg">
<path d="M24.3549 22.3594C22.7486 19.5824 20.2732 17.5911 17.3844 16.6472C18.8134 15.7965 19.9236 14.5003 20.5445 12.9577C21.1655 11.415 21.2629 9.71114 20.8217 8.10776C20.3806 6.50438 19.4253 5.09013 18.1027 4.08219C16.78 3.07426 15.163 2.52838 13.5 2.52838C11.8371 2.52838 10.2201 3.07426 8.8974 4.08219C7.57471 5.09013 6.61945 6.50438 6.17832 8.10776C5.73719 9.71114 5.83459 11.415 6.45554 12.9577C7.0765 14.5003 8.18669 15.7965 9.61561 16.6472C6.72682 17.5901 4.25147 19.5813 2.64518 22.3594C2.58628 22.4554 2.54721 22.5623 2.53027 22.6737C2.51334 22.7851 2.51889 22.8987 2.54659 23.008C2.5743 23.1172 2.6236 23.2197 2.69158 23.3096C2.75956 23.3994 2.84485 23.4748 2.94242 23.5311C3.03999 23.5875 3.14785 23.6237 3.25965 23.6377C3.37145 23.6517 3.48492 23.6432 3.59337 23.6126C3.70182 23.582 3.80304 23.53 3.89107 23.4597C3.9791 23.3894 4.05216 23.3021 4.10592 23.2031C6.09296 19.7691 9.60507 17.7187 13.5 17.7187C17.395 17.7187 20.9071 19.7691 22.8941 23.2031C22.9479 23.3021 23.021 23.3894 23.109 23.4597C23.197 23.53 23.2982 23.582 23.4067 23.6126C23.5151 23.6432 23.6286 23.6517 23.7404 23.6377C23.8522 23.6237 23.9601 23.5875 24.0576 23.5311C24.1552 23.4748 24.2405 23.3994 24.3085 23.3096C24.3765 23.2197 24.4258 23.1172 24.4535 23.008C24.4812 22.8987 24.4867 22.7851 24.4698 22.6737C24.4528 22.5623 24.4138 22.4554 24.3549 22.3594ZM7.59378 10.125C7.59378 8.95685 7.94017 7.81494 8.58916 6.84366C9.23815 5.87239 10.1606 5.11537 11.2398 4.66834C12.319 4.22131 13.5066 4.10434 14.6523 4.33224C15.798 4.56013 16.8504 5.12265 17.6764 5.94865C18.5024 6.77465 19.0649 7.82705 19.2928 8.97275C19.5207 10.1184 19.4037 11.306 18.9567 12.3852C18.5097 13.4645 17.7526 14.3869 16.7814 15.0359C15.8101 15.6849 14.6682 16.0312 13.5 16.0312C11.9341 16.0296 10.4328 15.4068 9.32553 14.2995C8.21825 13.1922 7.59545 11.6909 7.59378 10.125Z" fill="#4B77B3"/>
</svg>
